<?xml version="1.0" encoding="iso-8859-1"?>
<!-- Generator: Adobe Illustrator 18.1.1, SVG Export Plug-In . SVG Version: 6.00 Build 0)  -->
<svg xmlns="http://www.w3.org/2000/svg" xmlns:xlink="http://www.w3.org/1999/xlink" version="1.1" id="Capa_1" x="0px" y="0px" viewBox="0 0 19.712 19.712" style="enable-background:new 0 0 19.712 19.712;" xml:space="preserve" width="512px" height="512px">
<g>
	<g>
		<path d="M14.784,1.32H4.93L0,9.857l4.93,8.535h9.854l4.928-8.535L14.784,1.32z M14.066,17.146H5.649    L1.44,9.857l4.209-7.29h8.417l4.208,7.29L14.066,17.146z" fill="#292929"/>
		<path d="M5.606,7.154c-0.355,0-0.657,0.125-0.908,0.378C4.446,7.784,4.319,8.087,4.319,8.439v0.852    c0,0.325,0.11,0.61,0.327,0.856c0.255,0.284,0.576,0.427,0.96,0.43c0.12,0,0.221,0.041,0.303,0.123    c0.082,0.083,0.122,0.183,0.122,0.303v0.855c0,0.12-0.04,0.222-0.122,0.304c-0.082,0.081-0.183,0.122-0.303,0.122    c-0.119,0-0.222-0.041-0.306-0.122c-0.082-0.082-0.125-0.184-0.125-0.304v-0.43H4.319v0.43c0,0.354,0.127,0.656,0.379,0.906    c0.251,0.251,0.552,0.376,0.908,0.376c0.354,0,0.655-0.125,0.905-0.376c0.25-0.25,0.376-0.553,0.376-0.906v-0.855    c0-0.325-0.108-0.611-0.326-0.855C6.306,9.865,5.988,9.723,5.606,9.723c-0.119,0-0.222-0.041-0.306-0.125    C5.218,9.515,5.175,9.413,5.175,9.293V8.441c0-0.12,0.042-0.221,0.125-0.305c0.084-0.083,0.187-0.125,0.306-0.125    c0.12,0,0.221,0.042,0.303,0.125s0.122,0.185,0.122,0.305v0.425h0.778h0.078V8.441c0-0.353-0.126-0.656-0.376-0.907    C6.261,7.279,5.959,7.154,5.606,7.154z" fill="#292929"/>
		<polygon points="7.1,8.009 7.955,8.009 7.955,13.14 8.807,13.14 8.807,8.009 9.663,8.009 9.663,7.154     7.1,7.154   " fill="#292929"/>
		<path d="M11.173,7.154c-0.353,0-0.654,0.125-0.905,0.378c-0.25,0.251-0.375,0.554-0.375,0.907v3.418    c0,0.354,0.125,0.656,0.375,0.906c0.251,0.251,0.553,0.376,0.905,0.376c0.354,0,0.656-0.125,0.907-0.376    c0.25-0.25,0.375-0.553,0.375-0.906V8.439c0-0.353-0.125-0.656-0.375-0.907C11.829,7.279,11.528,7.154,11.173,7.154z M11.604,9.65    v1.002v1.206c0,0.12-0.042,0.222-0.124,0.304c-0.085,0.081-0.186,0.122-0.307,0.122c-0.118,0-0.219-0.041-0.302-0.122    c-0.083-0.082-0.123-0.184-0.123-0.304v-1.206V9.65V8.44c0-0.12,0.04-0.221,0.123-0.305c0.083-0.084,0.184-0.125,0.302-0.125    c0.121,0,0.222,0.042,0.307,0.125c0.082,0.083,0.124,0.185,0.124,0.305V9.65z" fill="#292929"/>
		<path d="M15.534,7.411c-0.166-0.166-0.365-0.249-0.6-0.249h-1.712v5.978h0.848v-2.563h0.864    c0.234,0,0.434-0.083,0.6-0.248c0.165-0.166,0.248-0.365,0.248-0.599V8.017C15.782,7.778,15.699,7.577,15.534,7.411z     M14.935,9.403c0,0.093-0.032,0.169-0.094,0.232c-0.062,0.062-0.139,0.094-0.23,0.094h-0.54V8.008h0.54    c0.092,0,0.169,0.032,0.23,0.094c0.062,0.063,0.094,0.141,0.094,0.231V9.403z" fill="#292929"/>
	</g>
</g>
<g>
</g>
<g>
</g>
<g>
</g>
<g>
</g>
<g>
</g>
<g>
</g>
<g>
</g>
<g>
</g>
<g>
</g>
<g>
</g>
<g>
</g>
<g>
</g>
<g>
</g>
<g>
</g>
<g>
</g>
</svg>
